<?xml version="1.0" encoding="UTF-8" standalone="no"?>
<!-- Created with Inkscape (http://www.inkscape.org/) -->

<svg
   width="248.83549mm"
   height="151.38965mm"
   viewBox="0 0 248.83549 151.38965"
   version="1.1"
   id="svg10832"
   inkscape:version="1.1 (c4e8f9ed74, 2021-05-24)"
   sodipodi:docname="phase_logo.svg"
   xmlns:inkscape="http://www.inkscape.org/namespaces/inkscape"
   xmlns:sodipodi="http://sodipodi.sourceforge.net/DTD/sodipodi-0.dtd"
   xmlns:xlink="http://www.w3.org/1999/xlink"
   xmlns="http://www.w3.org/2000/svg"
   xmlns:svg="http://www.w3.org/2000/svg">
  <sodipodi:namedview
     id="namedview10834"
     pagecolor="#ffffff"
     bordercolor="#666666"
     borderopacity="1.0"
     inkscape:pageshadow="2"
     inkscape:pageopacity="0.0"
     inkscape:pagecheckerboard="0"
     inkscape:document-units="mm"
     showgrid="false"
     inkscape:zoom="0.67081229"
     inkscape:cx="337.65034"
     inkscape:cy="193.04953"
     inkscape:window-width="1920"
     inkscape:window-height="1131"
     inkscape:window-x="2560"
     inkscape:window-y="32"
     inkscape:window-maximized="1"
     inkscape:current-layer="layer1" />
  <defs
     id="defs10829">
    <linearGradient
       inkscape:collect="always"
       xlink:href="#linearGradient34115"
       id="linearGradient10597"
       gradientUnits="userSpaceOnUse"
       x1="5201.4453"
       y1="-1057.0742"
       x2="4610.4849"
       y2="-911.35394"
       gradientTransform="matrix(0.26458333,0,0,0.26458333,-1167.2036,434.61894)" />
    <linearGradient
       inkscape:collect="always"
       id="linearGradient34115">
      <stop
         style="stop-color:#fbaf35;stop-opacity:1;"
         offset="0"
         id="stop34111" />
      <stop
         style="stop-color:#fc9e3f;stop-opacity:1"
         offset="1"
         id="stop34113" />
    </linearGradient>
  </defs>
  <g
     inkscape:label="Layer 1"
     inkscape:groupmode="layer"
     id="layer1"
     transform="translate(-15.60218,-97.456573)">
    <path
       id="path48775"
       style="color:#000000;fill:url(#linearGradient10597);fill-opacity:1;stroke:none;stroke-width:0.264583;stroke-linejoin:round;stroke-opacity:1;-inkscape-stroke:none"
       d="m 92.992857,97.476225 c -8.366839,-0.190871 -16.850333,1.006263 -25.111657,3.693825 -30.212876,9.82874 -51.094612,37.52529 -52.230389,69.27639 -1.135804,31.7511 17.713616,60.86933 47.146976,72.83173 29.433361,11.96239 63.251903,4.24985 84.588113,-19.29133 l -7.58039,-6.87038 c -18.47443,20.3836 -47.670273,27.0416 -73.15576,16.68373 -25.485486,-10.35788 -41.758208,-35.49558 -40.774778,-62.98788 0.983456,-27.49234 19.011,-51.40274 45.171412,-59.91314 26.160439,-8.51043 54.805236,0.21691 71.775976,21.86842 l 8.05223,-6.31174 c -2.44994,-3.12568 -5.11202,-6.0184 -7.95404,-8.66873 C 129.24321,105.03235 111.39989,97.896092 92.992857,97.476225 Z M 109.4647,143.50079 v 47.80329 h 9.04391 v -19.76727 c 0,-2.84237 0.71046,-5.01735 2.13164,-6.52466 1.46426,-1.55038 3.44549,-2.32545 5.94331,-2.32545 2.45478,0 4.39243,0.77507 5.81361,2.32545 1.42119,1.50731 2.13165,3.68229 2.13165,6.52466 v 19.76727 h 9.04388 V 170.3095 c 0,-3.22997 -0.60283,-5.98624 -1.80867,-8.26875 -1.16279,-2.32558 -2.79903,-4.06998 -4.90926,-5.23275 -2.11024,-1.20586 -4.52205,-1.80869 -7.23522,-1.80869 -2.36863,0 -4.5221,0.45212 -6.46007,1.35652 -1.93796,0.86133 -3.4881,2.06748 -4.65087,3.61786 v -16.4729 z m -22.932968,11.43394 c -2.627021,0 -4.974246,0.55975 -7.041409,1.67947 -2.024115,1.07667 -3.617304,2.43356 -4.780068,4.07003 v -5.16816 h -9.043908 v 52.84227 h 9.043908 v -22.15731 c 1.248913,1.63652 2.863612,2.99287 4.844653,4.06952 2.024115,1.07665 4.349803,1.61489 6.976824,1.61489 3.05771,0 5.813981,-0.77506 8.268759,-2.32544 2.497825,-1.55038 4.457514,-3.72537 5.878699,-6.52467 1.46426,-2.84236 2.19625,-6.09381 2.19625,-9.75444 0,-3.66062 -0.73199,-6.86901 -2.19625,-9.62526 -1.421185,-2.79929 -3.380874,-4.95223 -5.878699,-6.45953 -2.454778,-1.50734 -5.211049,-2.26137 -8.268759,-2.26137 z m 79.650958,0 c -3.05768,0 -5.83549,0.75403 -8.33334,2.26137 -2.45478,1.5073 -4.41447,3.66024 -5.8787,6.45953 -1.42118,2.79932 -2.13167,6.00771 -2.13167,9.62526 0,3.66062 0.71049,6.91208 2.13167,9.75444 1.46423,2.7993 3.42392,4.97429 5.8787,6.52467 2.49785,1.55038 5.25412,2.32544 8.26876,2.32544 2.67009,0 5.01732,-0.53824 7.04143,-1.61489 2.06717,-1.11972 3.68186,-2.51913 4.84466,-4.19871 v 5.23224 h 9.10849 v -35.78801 h -9.10849 v 5.10357 c -1.20587,-1.6365 -2.82057,-2.99339 -4.84466,-4.07003 -1.98107,-1.07664 -4.30675,-1.61488 -6.97685,-1.61488 z m 42.82943,0 c -2.88544,0 -5.40488,0.47363 -7.55819,1.4211 -2.11024,0.94745 -3.74701,2.23973 -4.90977,3.87625 -1.11972,1.6365 -1.6795,3.44498 -1.6795,5.42603 0,2.4117 0.60283,4.32831 1.80867,5.74951 1.24894,1.42118 2.71343,2.47612 4.39303,3.16518 1.72265,0.68906 3.91864,1.35699 6.58874,2.00298 2.58397,0.68906 4.45754,1.33494 5.62033,1.93787 1.20584,0.55986 1.80866,1.42103 1.80866,2.58382 0,1.07665 -0.49516,1.95935 -1.48568,2.64841 -0.94745,0.68906 -2.28227,1.03405 -4.00492,1.03405 -1.76573,0 -3.25176,-0.45263 -4.45762,-1.35702 -1.16279,-0.90439 -1.83021,-2.04545 -2.00245,-3.42357 h -9.10849 c 0.12919,2.19638 0.86119,4.19913 2.19625,6.0079 1.37811,1.80878 3.23014,3.25125 5.55572,4.32791 2.32558,1.03358 4.95268,1.55029 7.88117,1.55029 2.84237,0 5.31826,-0.45212 7.4285,-1.35651 2.15331,-0.94745 3.79005,-2.23922 4.90976,-3.87573 1.16279,-1.63651 1.74408,-3.48856 1.74408,-5.55573 -0.043,-2.36864 -0.68894,-4.26323 -1.93786,-5.68441 -1.20584,-1.46425 -2.64832,-2.54124 -4.32789,-3.2303 -1.67958,-0.68905 -3.81151,-1.35646 -6.39548,-2.00245 -2.5409,-0.64601 -4.41447,-1.27034 -5.62034,-1.87328 -1.20583,-0.64598 -1.80866,-1.57228 -1.80866,-2.77812 0,-1.07664 0.43058,-1.9163 1.29191,-2.51923 0.90439,-0.60293 2.17511,-0.90435 3.81166,-0.90435 1.7657,0 3.16511,0.43061 4.1987,1.29194 1.07664,0.81825 1.67947,1.93828 1.80867,3.35946 h 8.65632 c -0.2584,-3.61754 -1.6578,-6.48147 -4.1987,-8.5917 -2.5409,-2.15332 -5.94307,-3.2303 -10.20662,-3.2303 z m 37.79046,0 c -3.53142,0 -6.65422,0.75403 -9.36739,2.26137 -2.71317,1.5073 -4.82303,3.66024 -6.33036,6.45953 -1.50731,2.79932 -2.26084,6.05076 -2.26084,9.75445 0,3.66062 0.75353,6.89055 2.26084,9.68985 1.55038,2.7993 3.68231,4.97428 6.39548,6.52467 2.75624,1.50731 5.85697,2.26084 9.30227,2.26084 4.26355,0 7.85948,-1.098 10.78796,-3.29437 2.92852,-2.23944 4.90922,-5.08184 5.94281,-8.52713 h -9.75445 c -1.42118,2.88543 -3.81095,4.32842 -7.1701,4.32842 -2.32558,0 -4.28527,-0.73252 -5.87872,-2.19677 -1.59346,-1.46425 -2.49767,-3.48801 -2.71301,-6.07198 h 26.16223 c 0.17227,-1.03359 0.25837,-2.19669 0.25837,-3.48868 0,-3.48835 -0.75351,-6.56757 -2.26084,-9.23766 -1.46426,-2.71317 -3.55259,-4.80206 -6.26576,-6.26629 -2.67012,-1.46426 -5.70626,-2.19625 -9.10849,-2.19625 z m -0.25839,7.429 c 2.36866,0 4.37089,0.71045 6.00739,2.13164 1.63653,1.37813 2.47616,3.23016 2.51923,5.55574 h -16.98913 c 0.34451,-2.4117 1.27029,-4.28527 2.77759,-5.62033 1.55038,-1.37811 3.44549,-2.06705 5.68492,-2.06705 z m -162.402492,0.51675 c 1.679602,0 3.229716,0.40908 4.650899,1.22733 1.46423,0.81825 2.627339,2.02443 3.488663,3.61786 0.904399,1.55037 1.356519,3.40192 1.356519,5.55522 0,2.19637 -0.45212,4.09148 -1.356519,5.68492 -0.861324,1.59345 -2.024433,2.82063 -3.488663,3.68195 -1.421183,0.86132 -2.971297,1.29191 -4.650899,1.29191 -1.636501,0 -3.187144,-0.40906 -4.651375,-1.22731 -1.421183,-0.86133 -2.583788,-2.0885 -3.488161,-3.68195 -0.861324,-1.59345 -1.291907,-3.46702 -1.291907,-5.62033 0,-2.15331 0.430583,-4.02635 1.291907,-5.6198 0.904373,-1.59346 2.066978,-2.79961 3.488161,-3.61789 1.464231,-0.86132 3.014874,-1.29191 4.651375,-1.29191 z m 84.366442,0 c 1.67958,0 3.25173,0.43059 4.71599,1.29191 1.46425,0.81828 2.62683,2.02443 3.48816,3.61789 0.86132,1.55038 1.29191,3.42343 1.29191,5.6198 0,2.19637 -0.43059,4.09148 -1.29191,5.68492 -0.86133,1.55039 -2.02391,2.75603 -3.48816,3.61736 -1.46426,0.81825 -3.03641,1.22731 -4.71599,1.22731 -1.63653,0 -3.18661,-0.43059 -4.6509,-1.29191 -1.42115,-0.86132 -2.58426,-2.0885 -3.48866,-3.68195 -0.86133,-1.63651 -1.29191,-3.53161 -1.29191,-5.68492 0,-2.1533 0.43058,-4.00485 1.29191,-5.55522 0.9044,-1.59343 2.06751,-2.79961 3.48866,-3.61786 1.42121,-0.81825 2.97133,-1.22733 4.6509,-1.22733 z" />
  </g>
</svg>
